<svg width="403" height="394" viewBox="0 0 403 394" fill="none" xmlns="http://www.w3.org/2000/svg">
<path d="M150.441 281.571C147.907 267.064 149.245 260.857 150.441 253C159.768 262.286 174.118 268 207.121 269.428C240.124 270.857 249.451 248 255.19 257.286C260.93 266.571 257.186 281.571 250.168 292.285C241.745 305.142 217.883 305.142 212.143 321.571C206.403 337.999 223.622 347.285 212.143 345.856C200.664 344.428 194.08 335.856 192.054 318.714C190.619 306.571 190.619 292.285 179.14 292.285C167.66 292.285 168.378 297.285 164.791 307.999C161.203 318.714 153.311 297.999 150.441 281.571Z" fill="url(#paint0_linear_25_8)"/>
<path d="M182.8 54C182.8 51.2386 185.039 49 187.8 49H216.2C218.961 49 221.2 51.2386 221.2 54V236C221.2 238.761 218.961 241 216.2 241H187.8C185.039 241 182.8 238.761 182.8 236V54Z" fill="#413F3C"/>
<path d="M130 102.96C130 100.199 132.239 97.96 135 97.96H269C271.761 97.96 274 100.199 274 102.96V131.36C274 134.121 271.761 136.36 269 136.36H135C132.239 136.36 130 134.121 130 131.36V102.96Z" fill="#413F3C"/>
<defs>
<linearGradient id="paint0_linear_25_8" x1="189.5" y1="227.5" x2="219.5" y2="402" gradientUnits="userSpaceOnUse">
<stop offset="0.0152928" stop-color="#C2AB54"/>
<stop offset="0.751425" stop-color="#988642" stop-opacity="0.89647"/>
<stop offset="1" stop-color="#5C5128" stop-opacity="0.75"/>
</linearGradient>
</defs>
</svg>
